HIERARCHY
ROOT Hips
{
    OFFSET   0.000000   0.000000   0.000000
    CHANNELS 6 Xposition Yposition Zposition Zrotation Xrotation Yrotation
    JOINT Chest
    {
        OFFSET   0.000000   8.007230   0.000000
        CHANNELS 3 Zrotation Xrotation Yrotation
        JOINT Chest2
        {
            OFFSET   0.000000  22.077100   0.000000
            CHANNELS 3 Zrotation Xrotation Yrotation
            JOINT Neck
            {
                OFFSET   0.000000  23.254800  -0.000021
                CHANNELS 3 Zrotation Xrotation Yrotation
                JOINT Head
                {
                    OFFSET   0.000000  14.370000   1.956610
                    CHANNELS 3 Zrotation Xrotation Yrotation
                    End Site
                    {
                        OFFSET   0.000000  19.566000   0.000000
                    }
                }
            }
            JOINT LeftCollar
            {
                OFFSET   3.911900  19.017000  -0.467063
                CHANNELS 3 Zrotation Xrotation Yrotation
                JOINT LeftShoulder
                {
                    OFFSET  10.383700   0.000000   0.000000
                    CHANNELS 3 Zrotation Xrotation Yrotation
                    JOINT LeftElbow
                    {
                        OFFSET  26.662100   0.001529   0.000325
                        CHANNELS 3 Zrotation Xrotation Yrotation
                        JOINT LeftWrist
                        {
                            OFFSET  28.869000  -0.000011  -0.000096
                            CHANNELS 3 Zrotation Xrotation Yrotation
                            JOINT LeftFinger0
                            {
                                OFFSET   2.044650  -2.323460   3.252850
                                CHANNELS 3 Zrotation Xrotation Yrotation
                                JOINT LeftFinger01
                                {
                                    OFFSET   3.088130   0.000000   0.000000
                                    CHANNELS 3 Zrotation Xrotation Yrotation
                                    JOINT LeftFinger02
                                    {
                                        OFFSET   2.639460   0.000000   0.000000
                                        CHANNELS 3 Zrotation Xrotation Yrotation
                                        End Site
                                        {
                                            OFFSET   2.582190   0.000000   0.000000
                                        }
                                    }
                                }
                            }
                            JOINT LeftFinger1
                            {
                                OFFSET   8.364480   0.000000   3.252850
                                CHANNELS 3 Zrotation Xrotation Yrotation
                                JOINT LeftFinger11
                                {
                                    OFFSET   4.646930   0.000000   0.000000
                                    CHANNELS 3 Zrotation Xrotation Yrotation
                                    JOINT LeftFinger12
                                    {
                                        OFFSET   2.323460   0.000000   0.000000
                                        CHANNELS 3 Zrotation Xrotation Yrotation
                                        End Site
                                        {
                                            OFFSET   2.273050   0.000000   0.000000
                                        }
                                    }
                                }
                            }
                            JOINT LeftFinger2
                            {
                                OFFSET   8.364480   0.000016   1.078090
                                CHANNELS 3 Zrotation Xrotation Yrotation
                                JOINT LeftFinger21
                                {
                                    OFFSET   5.111620   0.000000   0.000000
                                    CHANNELS 3 Zrotation Xrotation Yrotation
                                    JOINT LeftFinger22
                                    {
                                        OFFSET   2.788160   0.000017   0.000000
                                        CHANNELS 3 Zrotation Xrotation Yrotation
                                        End Site
                                        {
                                            OFFSET   2.727660   0.000000   0.000000
                                        }
                                    }
                                }
                            }
                            JOINT LeftFinger3
                            {
                                OFFSET   7.899780   0.000015  -1.078090
                                CHANNELS 3 Zrotation Xrotation Yrotation
                                JOINT LeftFinger31
                                {
                                    OFFSET   4.646920   0.000000   0.000000
                                    CHANNELS 3 Zrotation Xrotation Yrotation
                                    JOINT LeftFinger32
                                    {
                                        OFFSET   2.323470   0.000000   0.000000
                                        CHANNELS 3 Zrotation Xrotation Yrotation
                                        End Site
                                        {
                                            OFFSET   2.273050   0.000000   0.000000
                                        }
                                    }
                                }
                            }
                            JOINT LeftFinger4
                            {
                                OFFSET   7.435090   0.000000  -3.252850
                                CHANNELS 3 Zrotation Xrotation Yrotation
                                JOINT LeftFinger41
                                {
                                    OFFSET   3.717550   0.000000   0.000000
                                    CHANNELS 3 Zrotation Xrotation Yrotation
                                    JOINT LeftFinger42
                                    {
                                        OFFSET   1.858760   0.000000   0.000000
                                        CHANNELS 3 Zrotation Xrotation Yrotation
                                        End Site
                                        {
                                            OFFSET   1.818440   0.000000   0.000000
                                        }
                                    }
                                }
                            }
                        }
                    }
                }
            }
            JOINT RightCollar
            {
                OFFSET  -3.911900  19.017000  -0.467062
                CHANNELS 3 Zrotation Xrotation Yrotation
                JOINT RightShoulder
                {
                    OFFSET -10.383700   0.000015   0.000000
                    CHANNELS 3 Zrotation Xrotation Yrotation
                    JOINT RightElbow
                    {
                        OFFSET -26.662100   0.001341   0.000385
                        CHANNELS 3 Zrotation Xrotation Yrotation
                        JOINT RightWrist
                        {
                            OFFSET -28.869000   0.000025  -0.000080
                            CHANNELS 3 Zrotation Xrotation Yrotation
                            JOINT RightFinger0
                            {
                                OFFSET  -2.044650  -2.323490   3.252850
                                CHANNELS 3 Zrotation Xrotation Yrotation
                                JOINT RightFinger01
                                {
                                    OFFSET  -3.088130   0.000000   0.000000
                                    CHANNELS 3 Zrotation Xrotation Yrotation
                                    JOINT RightFinger02
                                    {
                                        OFFSET  -2.639460   0.000000   0.000000
                                        CHANNELS 3 Zrotation Xrotation Yrotation
                                        End Site
                                        {
                                            OFFSET  -2.582190   0.000000   0.000000
                                        }
                                    }
                                }
                            }
                            JOINT RightFinger1
                            {
                                OFFSET  -8.364480   0.000000   3.252850
                                CHANNELS 3 Zrotation Xrotation Yrotation
                                JOINT RightFinger11
                                {
                                    OFFSET  -4.646930   0.000000   0.000000
                                    CHANNELS 3 Zrotation Xrotation Yrotation
                                    JOINT RightFinger12
                                    {
                                        OFFSET  -2.323470   0.000000   0.000000
                                        CHANNELS 3 Zrotation Xrotation Yrotation
                                        End Site
                                        {
                                            OFFSET  -2.273050   0.000000   0.000000
                                        }
                                    }
                                }
                            }
                            JOINT RightFinger2
                            {
                                OFFSET  -8.364480   0.000000   1.078090
                                CHANNELS 3 Zrotation Xrotation Yrotation
                                JOINT RightFinger21
                                {
                                    OFFSET  -5.111610   0.000000   0.000000
                                    CHANNELS 3 Zrotation Xrotation Yrotation
                                    JOINT RightFinger22
                                    {
                                        OFFSET  -2.788160   0.000000   0.000000
                                        CHANNELS 3 Zrotation Xrotation Yrotation
                                        End Site
                                        {
                                            OFFSET  -2.727660   0.000000   0.000000
                                        }
                                    }
                                }
                            }
                            JOINT RightFinger3
                            {
                                OFFSET  -7.899780   0.000000  -1.078090
                                CHANNELS 3 Zrotation Xrotation Yrotation
                                JOINT RightFinger31
                                {
                                    OFFSET  -4.646920   0.000000   0.000000
                                    CHANNELS 3 Zrotation Xrotation Yrotation
                                    JOINT RightFinger32
                                    {
                                        OFFSET  -2.323470   0.000000   0.000000
                                        CHANNELS 3 Zrotation Xrotation Yrotation
                                        End Site
                                        {
                                            OFFSET  -2.273050   0.000000   0.000000
                                        }
                                    }
                                }
                            }
                            JOINT RightFinger4
                            {
                                OFFSET  -7.435090   0.000000  -3.252850
                                CHANNELS 3 Zrotation Xrotation Yrotation
                                JOINT RightFinger41
                                {
                                    OFFSET  -3.717550   0.000000   0.000000
                                    CHANNELS 3 Zrotation Xrotation Yrotation
                                    JOINT RightFinger42
                                    {
                                        OFFSET  -1.858770   0.000000   0.000000
                                        CHANNELS 3 Zrotation Xrotation Yrotation
                                        End Site
                                        {
                                            OFFSET  -1.818440   0.000000   0.000000
                                        }
                                    }
                                }
                            }
                        }
                    }
                }
            }
        }
    }
    JOINT LeftHip
    {
        OFFSET   9.783010   0.000000   0.000000
        CHANNELS 3 Zrotation Xrotation Yrotation
        JOINT LeftKnee
        {
            OFFSET   0.000070 -41.789100   0.000028
            CHANNELS 3 Zrotation Xrotation Yrotation
            JOINT LeftAnkle
            {
                OFFSET   0.000087 -41.133200  -0.000100
                CHANNELS 3 Zrotation Xrotation Yrotation
                JOINT LeftToe
                {
                    OFFSET   0.000000  -6.358960  14.674500
                    CHANNELS 3 Zrotation Xrotation Yrotation
                    End Site
                    {
                        OFFSET   0.000000   0.000000   3.913200
                    }
                }
            }
        }
    }
    JOINT RightHip
    {
        OFFSET  -9.783020   0.000000   0.000000
        CHANNELS 3 Zrotation Xrotation Yrotation
        JOINT RightKnee
        {
            OFFSET   0.000044 -41.789100  -0.000870
            CHANNELS 3 Zrotation Xrotation Yrotation
            JOINT RightAnkle
            {
                OFFSET  -0.000090 -41.133200  -0.000245
                CHANNELS 3 Zrotation Xrotation Yrotation
                JOINT RightToe
                {
                    OFFSET   0.000000  -6.358960  14.674500
                    CHANNELS 3 Zrotation Xrotation Yrotation
                    End Site
                    {
                        OFFSET   0.000000   0.000000   3.913200
                    }
                }
            }
        }
    }
}
MOTION
Frames: 4
Frame Time:   0.016667
 -0.752449  89.988500  -1.883920  -1.254240 -12.418100  -0.665985  -0.047416   9.609830   0.683959  -0.217827  19.218400   1.406510   3.029770  -0.507913   0.027598   4.979040  -1.021160   3.237540  -6.112490  -7.207850   3.129100 -64.305000  33.724100  -7.196380  -5.052660  -9.915050 -16.322500  14.187100   0.469224  12.175300  38.519300  25.736400 -61.462000 -25.257700  -0.000251  -0.000081  -7.628860  -0.004104   0.003193 -30.012400   6.835450 -11.641200 -25.128700  -0.001577   0.005308 -17.590200  -0.004070   0.002001 -28.654400   2.830080  -5.160370 -42.160400  -0.007336   0.004277 -28.078900  -0.009205   0.006581 -27.032800   2.681630  -5.238820 -27.642000  -0.002342   0.001475 -18.410000  -0.001997   0.003073 -30.646300   1.133560  -1.912650 -45.998000  -0.003207   0.000153 -30.634700  -0.001853   0.001665   9.640780  -4.974490  14.044700  39.791800  21.036100  65.271500  -6.614950 -22.634300  95.400900   6.244210  -0.438048  15.437000 -58.371600  43.180600  85.620300  -0.253552   0.002587  -0.000012  -5.126770   0.002836   0.000522  88.996200   4.999400   0.086951  81.986800   0.009924   0.000763  61.490100  -0.003343  -0.001145  89.001000  -0.002311  -0.004641 101.522000   0.004613  -0.000570  76.141300  -0.002346  -0.004152  88.995000  -5.000640  -0.084427 102.993000  -0.002030  -0.004793  77.244600  -0.003171  -0.000205  88.985100 -10.003600  -0.173608 110.000000  -0.006420  -0.002879  80.000000  -0.003287   0.003168   1.255190  11.351400   1.169110   0.733269   2.828800  10.137000  -5.844820  -3.433170   2.713110  -0.000000   0.000000   0.000000   4.032420   9.935120  -6.991800  -2.402110   5.897800  -4.844800 -10.077800  -0.821258   3.920620   0.000000   0.000000  -0.000000
 -0.750389  89.993600  -1.865110  -1.238060 -12.401700  -0.562110  -0.071838   9.607710   0.730759  -0.276000  19.213700   1.506470   3.054320  -0.539865   0.028787   5.019000  -1.085300   3.175520  -6.107790  -7.232710   3.090410 -64.272000  33.739400  -7.204090  -5.028360  -9.953420 -16.332100  14.191800   0.481870  12.174800  38.558400  25.826400 -61.564200 -25.240800  -0.000305  -0.000099  -7.620390  -0.004105   0.003248 -30.013500   6.856980 -11.677300 -25.131100  -0.001803   0.005342 -17.591800  -0.004159   0.002064 -28.652400   2.842180  -5.182530 -42.172200  -0.007408   0.004353 -28.086700  -0.009318   0.006622 -27.031300   2.693000  -5.261340 -27.637700  -0.002346   0.001489 -18.406700  -0.002055   0.003058 -30.646200   1.133390  -1.911960 -45.997800  -0.003191   0.000219 -30.634600  -0.001884   0.001695   9.666020  -5.094930  14.046000  39.640500  21.078100  65.529800  -6.655690 -22.707700  95.259600   6.419660  -0.411441  15.403500 -58.224000  43.166000  85.625400  -0.105097   0.002549   0.000062  -5.052520   0.002790   0.000529  88.996300   4.999370   0.086947  82.024700   0.009969   0.000729  61.518500  -0.003415  -0.001132  89.001000  -0.002353  -0.004624 101.571000   0.004702  -0.000552  76.178200  -0.002382  -0.004230  88.995000  -5.000610  -0.084439 103.045000  -0.001992  -0.004877  77.283800  -0.003196  -0.000267  88.985100 -10.003600  -0.173587 110.000000  -0.006454  -0.002854  80.000000  -0.003287   0.003134   1.265650  11.336700   1.171560   0.737625   2.812320  10.082300  -5.852270  -3.419740   2.662860  -0.000000   0.000000   0.000000   4.032440   9.962760  -7.024400  -2.383640   5.846990  -4.879510 -10.080700  -0.806279   3.885530  -0.000000   0.000000  -0.000000
 -0.749063  89.997900  -1.844540  -1.222850 -12.378000  -0.464067  -0.099264   9.598550   0.788767  -0.342167  19.194900   1.629810   3.083800  -0.569784   0.030958   5.067580  -1.145520   3.090270  -6.102040  -7.246380   3.045150 -64.248200  33.734000  -7.213060  -5.001680  -9.979500 -16.335800  14.189100   0.453981  12.181300  38.516500  25.730700 -61.467100 -25.253300  -0.000343  -0.000106  -7.626640  -0.004115   0.003303 -30.050200   6.842920 -11.640300 -25.156300  -0.002020   0.005381 -17.609300  -0.004246   0.002127 -28.654900   2.829710  -5.159570 -42.235700  -0.007482   0.004432 -28.129000  -0.009429   0.006661 -27.049800   2.682680  -5.237290 -27.711400  -0.002350   0.001508 -18.455800  -0.002114   0.003041 -30.681600   1.126970  -1.898380 -46.050600  -0.003172   0.000285 -30.669700  -0.001916   0.001727   9.704620  -5.201870  14.027800  39.588800  21.109200  65.527500  -6.669720 -22.698400  95.283300   6.625330  -0.361674  15.406700 -57.923900  43.096800  85.520700   0.002998   0.002500   0.000039  -4.998480   0.002735   0.000550  88.996200   4.999350   0.086948  82.101400   0.010019   0.000686  61.576000  -0.003482  -0.001116  89.001000  -0.002392  -0.004600 101.676000   0.004791  -0.000531  76.257200  -0.002425  -0.004307  88.994900  -5.000580  -0.084443 103.154000  -0.001948  -0.004955  77.365200  -0.003223  -0.000326  88.985100 -10.003500  -0.173566 110.000000  -0.006473  -0.002825  80.000000  -0.003287   0.003098   1.276350  11.327900   1.170330   0.740844   2.785960  10.028700  -5.859190  -3.409710   2.623240  -0.000000   0.000000   0.000000   4.038920   9.980110  -7.054810  -2.372050   5.800770  -4.906330 -10.085000  -0.791393   3.847540   0.000000   0.000000   0.000000
 -0.747914  90.002200  -1.822690  -1.206890 -12.353000  -0.365202  -0.129306   9.586150   0.851203  -0.414343  19.169300   1.762600   3.115550  -0.604208   0.033583   5.119900  -1.214690   3.001760  -6.097400  -7.255700   2.998180 -64.234700  33.709400  -7.219910  -4.973260  -9.996350 -16.338300  14.187700   0.402369  12.193200  38.466200  25.602800 -61.332900 -25.265800  -0.000380  -0.000113  -7.632890  -0.004123   0.003356 -30.081600   6.823510 -11.591300 -25.179700  -0.002235   0.005421 -17.625700  -0.004332   0.002189 -28.658300   2.811760  -5.126510 -42.312900  -0.007556   0.004513 -28.180400  -0.009539   0.006701 -27.075200   2.667770  -5.202690 -27.814900  -0.002353   0.001529 -18.524700  -0.002173   0.003024 -30.733300   1.117830  -1.879310 -46.127600  -0.003149   0.000355 -30.721000  -0.001948   0.001759   9.754930  -5.281660  13.991800  39.520300  21.203200  65.405800  -6.673590 -22.632700  95.448900   6.879330  -0.273863  15.429500 -57.579900  43.000100  85.341400   0.101431   0.002448   0.000000  -4.949280   0.002680   0.000566  88.996200   4.999330   0.086949  82.152100   0.010069   0.000641  61.614000  -0.003549  -0.001099  89.001100  -0.002430  -0.004575 101.780000   0.004879  -0.000509  76.335200  -0.002468  -0.004384  88.994900  -5.000550  -0.084444 103.261000  -0.001902  -0.005032  77.445300  -0.003251  -0.000384  88.985100 -10.003500  -0.173544 110.000000  -0.006492  -0.002798  80.000000  -0.003285   0.003062   1.283890  11.318900   1.161890   0.743607   2.758330   9.977370  -5.865720  -3.400200   2.589020  -0.000000   0.000000   0.000000   4.045050   9.994410  -7.085220  -2.360860   5.758620  -4.932890 -10.091000  -0.778815   3.807090   0.000000   0.000000  -0.000000
